#!OML:ASF I:\golf\golf\golf 2\Subject 1\2002-09-07\Subject1.ASF
:FULLY-SPECIFIED
:DEGREES
270
root -0.965493 18.0527 -3.46012 48.1559 26.8248 10.6973
lowerback 22.9528 1.093 2.5215
upperback 10.6251 2.61615 9.54857
thorax -1.45173 1.23137 8.37817
lowerneck -16.8957 -6.14534 -2.0337
upperneck 23.6298 -5.4996 -8.82459
head 10.1512 -3.62735 -3.50586
rclavicle -4.13472e-014 -7.11649e-014
rhumerus 28.0348 8.29538 -59.5403
rradius 21.5224
rwrist -6.29905
rhand -22.9177 13.0599
rfingers 7.12502
rthumb 3.5226 -16.8908
lclavicle -4.13472e-014 -7.11649e-014
lhumerus -17.1102 -21.3887 92.2513
lradius 70.1411
lwrist 12.0402
lhand -13.3749 29.0165
lfingers 7.12502
lthumb 12.7318 58.6084
rfemur -66.0005 -6.46931 14.2281
rtibia 29.4015
rfoot -3.3952 -12.6031
rtoes 15.7936
lfemur -43.9158 -1.5976 -13.8237
ltibia 25.9583
lfoot -5.89964 -0.724536
ltoes -12.173
271
root -0.989221 18.0562 -3.42153 49.0056 26.8421 11.2645
lowerback 23.1606 1.03363 2.47161
upperback 10.7476 2.55213 9.65964
thorax -1.41474 1.19537 8.55437
lowerneck -16.8095 -6.22359 -2.14322
upperneck 22.9814 -5.6304 -8.82038
head 9.90149 -3.68927 -3.46888
rclavicle 1.90833e-014 1.23246e-014
rhumerus 29.291 8.34709 -58.7393
rradius 21.2299
rwrist -6.03613
rhand -23.1678 13.0038
rfingers 7.12502
rthumb 3.28103 -16.9507
lclavicle 1.90833e-014 1.23246e-014
lhumerus -17.1759 -21.506 92.4939
lradius 70.9122
lwrist 12.018
lhand -13.4218 29.1266
lfingers 7.12502
lthumb 12.6866 58.7212
rfemur -66.362 -6.4403 13.5242
rtibia 29.2024
rfoot -3.26183 -13.178
rtoes 16.2336
lfemur -43.7676 -1.76465 -13.8026
ltibia 25.7762
lfoot -4.37558 -1.50155
ltoes -12.342
272
root -1.00962 18.0536 -3.38837 50.0395 27.1163 11.7769
lowerback 23.1971 0.963117 2.86913
upperback 10.7731 2.55286 9.74378
thorax -1.39144 1.20668 8.41702
lowerneck -16.7343 -6.37167 -1.98572
upperneck 22.3611 -5.92363 -8.84349
head 9.64563 -3.80628 -3.50564
rclavicle 6.04305e-014 -2.3059e-014
rhumerus 30.2996 7.98437 -58.0609
rradius 20.9893
rwrist -5.68945
rhand -23.3301 13.0329
rfingers 7.12502
rthumb 3.1243 -16.924
lclavicle 6.04305e-014 -2.3059e-014
lhumerus -17.2947 -21.9589 92.7137
lradius 71.6729
lwrist 11.903
lhand -13.3924 29.1888
lfingers 7.12502
lthumb 12.7149 58.7817
rfemur -66.915 -6.46708 12.9504
rtibia 29.0166
rfoot -3.25863 -13.976
rtoes 17.1752
lfemur -43.9356 -1.92336 -13.589
ltibia 25.6351
lfoot -2.76056 -2.31138
ltoes -12.608
273
root -1.03297 18.06 -3.34394 50.8423 27.175 12.1843
lowerback 23.4334 1.03225 3.04173
upperback 10.8725 2.69734 9.85641
thorax -1.41282 1.27969 8.40973
lowerneck -16.765 -6.55614 -2.10802
upperneck 21.8628 -6.2276 -8.64416
head 9.47437 -3.92983 -3.43255
rclavicle -4.77083e-014 2.78299e-015
rhumerus 31.1823 7.66905 -57.2586
rradius 20.9562
rwrist -5.50594
rhand -23.4455 13
rfingers 7.12502
rthumb 3.01291 -16.9584
lclavicle -4.77083e-014 2.78299e-015
lhumerus -17.303 -22.4675 92.9591
lradius 72.2904
lwrist 11.9513
lhand -13.3089 29.2704
lfingers 7.12502
lthumb 12.7955 58.8582
rfemur -67.2594 -6.2697 12.2873
rtibia 28.872
rfoot -3.44776 -14.8287
rtoes 18.3246
lfemur -43.7752 -1.94528 -13.4116
ltibia 25.4402
lfoot -1.10052 -2.95045
ltoes -10.839
274
root -1.05371 18.0651 -3.29769 51.7451 27.0809 12.6464
lowerback 23.5649 1.11654 3.11183
upperback 10.9644 2.82731 9.92042
thorax -1.39132 1.34278 8.41008
lowerneck -16.8288 -6.7423 -2.31942
upperneck 21.3619 -6.51145 -8.42284
head 9.31638 -4.04981 -3.33769
rclavicle -5.725e-014 -5.1684e-015
rhumerus 32.0137 7.32597 -56.5482
rradius 21.0235
rwrist -5.47794
rhand -23.7359 13.0582
rfingers 7.12502
rthumb 2.7324 -16.9041
lclavicle -5.725e-014 -5.1684e-015
lhumerus -17.2518 -22.9214 93.1809
lradius 72.863
lwrist 12.0297
lhand -13.2342 29.4193
lfingers 7.12502
lthumb 12.8674 59.0027
rfemur -67.7478 -6.16697 11.5961
rtibia 28.7762
rfoot -3.52261 -15.4524
rtoes 19.0778
lfemur -43.6181 -1.87468 -13.4508
ltibia 25.1769
lfoot 0.640814 -3.38612
ltoes -9.13829
275
root -1.07169 18.0687 -3.25113 52.6405 26.707 13.3049
lowerback 23.701 1.32011 2.78941
upperback 11.0852 3.02402 9.94994
thorax -1.36605 1.42697 8.58462
lowerneck -16.6814 -6.96714 -2.23164
upperneck 20.6709 -6.88603 -8.4901
head 9.02723 -4.21495 -3.38047
rclavicle 3.18055e-015 -8.74653e-015
rhumerus 32.85 7.30969 -55.1944
rradius 21.2024
rwrist -6.13942
rhand -24.0458 13.0115
rfingers 7.12502
rthumb 2.43314 -16.9544
lclavicle 3.18055e-015 -8.74653e-015
lhumerus -17.221 -23.4222 93.5259
lradius 73.3636
lwrist 11.9932
lhand -13.1515 29.3001
lfingers 7.12502
lthumb 12.9472 58.8784
rfemur -68.1903 -6.19274 10.6708
rtibia 28.7086
rfoot -3.76067 -15.864
rtoes 20.863
lfemur -43.3134 -1.53444 -14.1341
ltibia 24.873
lfoot 2.21839 -4.29158
ltoes -12.9458
276
root -1.08973 18.0722 -3.20747 53.5536 26.355 14.0375
lowerback 23.9014 1.44565 2.49246
upperback 11.1799 3.13297 9.94269
thorax -1.38753 1.47062 8.72401
lowerneck -16.6225 -7.11191 -2.03628
upperneck 20.0828 -7.15495 -8.61962
head 8.78825 -4.33331 -3.45619
rclavicle 9.54166e-015 4.39314e-014
rhumerus 33.6778 7.24534 -54.0082
rradius 21.423
rwrist -6.31818
rhand -24.7183 12.9343
rfingers 7.12502
rthumb 1.78368 -17.038
lclavicle 9.54166e-015 4.39314e-014
lhumerus -17.2771 -23.7889 93.8331
lradius 73.8822
lwrist 12.0049
lhand -13.0118 28.9868
lfingers 7.12502
lthumb 13.0818 58.5565
rfemur -68.6049 -6.24247 9.6236
rtibia 28.6752
rfoot -3.7427 -16.3278
rtoes 21.9506
lfemur -43.0432 -1.29456 -14.8367
ltibia 24.5878
lfoot 3.66383 -5.34161
ltoes -16.814
277
root -1.11235 18.0739 -3.16482 54.4344 26.6622 14.3805
lowerback 24.11 1.43374 2.94173
upperback 11.2013 3.24082 10.1165
thorax -1.46539 1.53436 8.6302
lowerneck -16.6704 -7.25005 -1.93844
upperneck 19.5692 -7.40752 -8.61988
head 8.60555 -4.44107 -3.47911
rclavicle 6.67916e-014 3.05134e-014
rhumerus 34.4289 7.24392 -52.7441
rradius 21.8449
rwrist -6.72355
rhand -25.3681 12.6825
rfingers 7.12502
rthumb 1.15605 -17.2941
lclavicle 6.67916e-014 3.05134e-014
lhumerus -17.3981 -24.2048 94.1156
lradius 74.5038
lwrist 12.0503
lhand -12.9417 28.686
lfingers 7.12502
lthumb 13.1494 58.2513
rfemur -69.1001 -6.14378 9.11891
rtibia 28.665
rfoot -3.37955 -17.0986
rtoes 21.5384
lfemur -43.0052 -1.18598 -14.5935
ltibia 24.3114
lfoot 5.34213 -6.04023
ltoes -17.2109
278
root -1.13462 18.0757 -3.11998 55.145 26.9414 14.5585
lowerback 24.4294 1.44432 3.4063
upperback 11.2799 3.38702 10.2981
thorax -1.53595 1.61508 8.52721
lowerneck -16.7186 -7.39487 -1.92286
upperneck 18.9877 -7.67101 -8.5307
head 8.40816 -4.55114 -3.45739
rclavicle 4.45278e-014 -2.84262e-014
rhumerus 35.1494 7.24129 -51.5696
rradius 22.4267
rwrist -7.78357
rhand -24.9787 12.3537
rfingers 7.12502
rthumb 1.53212 -17.6206
lclavicle 4.45278e-014 -2.84262e-014
lhumerus -17.3927 -24.6688 94.2851
lradius 75.0642
lwrist 12.1443
lhand -13.1224 28.6705
lfingers 7.12502
lthumb 12.9752 58.247
rfemur -69.5797 -6.11874 9.00825
rtibia 28.6827
rfoot -3.12827 -17.5428
rtoes 20.8989
lfemur -42.8511 -1.0285 -14.2189
ltibia 24.1433
lfoot 6.9173 -6.5826
ltoes -16.881
279
root -1.15754 18.077 -3.06852 55.7135 26.6249 14.8378
lowerback 24.8179 1.63747 3.22244
upperback 11.4625 3.61312 10.3477
thorax -1.56289 1.71515 8.63242
lowerneck -16.7866 -7.53173 -1.96169
upperneck 18.4247 -7.92225 -8.36319
head 8.22849 -4.65254 -3.40194
rclavicle 3.81667e-014 -1.62258e-014
rhumerus 35.8814 7.16184 -50.4572
rradius 22.9942
rwrist -8.83066
rhand -25.0187 12.3386
rfingers 7.12502
rthumb 1.49353 -17.6359
lclavicle 3.81667e-014 -1.62258e-014
lhumerus -17.2958 -25.0692 94.4236
lradius 75.5329
lwrist 12.1598
lhand -13.2591 28.9915
lfingers 7.12502
lthumb 12.8435 58.5764
rfemur -69.962 -6.00889 8.53896
rtibia 28.7197
rfoot -3.12521 -17.7168
rtoes 21.1515
lfemur -42.4126 -0.833964 -14.3426
ltibia 24.0858
lfoot 8.15553 -6.92175
ltoes -16.862
280
root -1.16683 18.0626 -3.04157 56.9395 26.4434 15.6192
lowerback 24.6979 1.61433 3.26094
upperback 11.4753 3.58127 10.3291
thorax -1.48304 1.70133 8.5984
lowerneck -16.7468 -7.67928 -1.93224
upperneck 17.7739 -8.19774 -8.28245
head 7.99358 -4.76782 -3.379
rclavicle 5.725e-014 -5.33737e-014
rhumerus 36.6047 7.14428 -49.1415
rradius 23.5123
rwrist -9.40749
rhand -25.5939 12.2417
rfingers 7.12502
rthumb 0.937978 -17.736
lclavicle 5.725e-014 -5.33737e-014
lhumerus -17.2982 -25.412 94.6696
lradius 76.0015
lwrist 12.1129
lhand -13.2251 29.4156
lfingers 7.12502
lthumb 12.8762 58.9984
rfemur -70.7784 -6.40525 7.72065
rtibia 28.7957
rfoot -3.18102 -18.0923
rtoes 22.6361
lfemur -42.5763 -1.11096 -14.6607
ltibia 23.9861
lfoot 9.3933 -7.09111
ltoes -16.0839
